#!OML:ASF H:\Male1\Project 1\Capture day 1\Session 1\Male1.ASF
:FULLY-SPECIFIED
:DEGREES
305
root 2.05184 15.4062 -0.49362 -521.893 -93.4128 516.531
lowerback 6.43947 0.626164 1.36395
upperback 5.77964 0.712373 0.25292
thorax 2.36821 0.322273 -0.536844
lowerneck -14.0143 2.98619 5.00727
upperneck 23.7685 2.57329 0.108079
head 9.94462 1.52541 -0.501499
rclavicle -2.7395e-015 -2.5345e-015
rhumerus -32.0146 5.4472 -87.6619
rradius 32.5942
rwrist -18.4553
rhand -17.645 -2.20387
rfingers 7.12502
rthumb 8.6129 -32.0082
lclavicle -2.7395e-015 -2.5345e-015
lhumerus -27.9395 0.82116 86.7002
lradius 27.5418
lwrist -4.46973
lhand -18.5827 15.0781
lfingers 7.12502
lthumb 7.70796 44.9176
rfemur -3.86953 8.86271 26.2027
rtibia 25.0582
rfoot -25.4055 -28.5342
rtoes -5.45872
lfemur -12.3182 -4.22095 -18.9315
ltibia 57.9713
lfoot -15.1544 12.5702
ltoes -9.77969
306
root 2.217 15.4174 -0.469111 -520.804 -93.3756 515.251
lowerback 6.2331 0.615158 1.15479
upperback 5.78083 0.687845 0.274926
thorax 2.47986 0.304008 -0.394016
lowerneck -14.0929 2.96575 5.01551
upperneck 23.9741 2.51681 0.151646
head 10.0318 1.5045 -0.493577
rclavicle 6.53505e-015 -1.0138e-014
rhumerus -32.4564 4.70308 -87.3421
rradius 31.9128
rwrist -18.0739
rhand -17.8418 -1.99521
rfingers 7.12502
rthumb 8.42301 -31.8072
lclavicle 6.53505e-015 -1.0138e-014
lhumerus -27.5324 -0.160728 87.1638
lradius 27.4914
lwrist -3.90007
lhand -18.8216 15.1401
lfingers 7.12502
lthumb 7.47737 44.9879
rfemur -4.19636 9.31105 26.0746
rtibia 24.7276
rfoot -24.8032 -28.8916
rtoes -5.4562
lfemur -10.2352 -3.86565 -18.6779
ltibia 58.7079
lfoot -13.7379 12.3352
ltoes -8.07499
307
root 2.38611 15.4228 -0.442951 -512.848 -93.5095 507.059
lowerback 6.11895 0.557687 1.31076
upperback 5.76874 0.613707 0.449374
thorax 2.52973 0.26903 -0.297983
lowerneck -14.0682 2.9877 5.01945
upperneck 24.086 2.53202 0.184726
head 10.0677 1.51453 -0.480917
rclavicle 6.44808e-015 -2.78299e-015
rhumerus -32.9153 4.04323 -87.0012
rradius 31.2402
rwrist -17.6957
rhand -17.9537 -1.79188
rfingers 7.12502
rthumb 8.31497 -31.6082
lclavicle 6.44808e-015 -2.78299e-015
lhumerus -27.2149 -1.20106 87.6935
lradius 27.5276
lwrist -3.11663
lhand -19.1385 14.6626
lfingers 7.12502
lthumb 7.17145 44.5211
rfemur -4.46326 9.78831 26.4303
rtibia 24.3693
rfoot -24.4717 -29.069
rtoes -4.277
lfemur -7.97494 -3.48428 -17.8679
ltibia 59.0515
lfoot -13.3647 11.5227
ltoes -12.0467
308
root 2.55398 15.4298 -0.411199 -508.674 -93.7374 502.766
lowerback 5.97217 0.446592 1.36921
upperback 5.66173 0.470693 0.562615
thorax 2.49733 0.198961 -0.208235
lowerneck -13.9228 2.99903 5.00058
upperneck 24.118 2.54003 0.242243
head 10.0507 1.52109 -0.458643
rclavicle 9.6659e-015 1.78906e-015
rhumerus -33.425 3.2822 -86.6148
rradius 30.556
rwrist -17.3495
rhand -17.7695 -1.66058
rfingers 7.12502
rthumb 8.49281 -31.4698
lclavicle 9.6659e-015 1.78906e-015
lhumerus -27.0137 -2.35452 88.1845
lradius 27.5117
lwrist -2.6879
lhand -19.287 13.8234
lfingers 7.12502
lthumb 7.02815 43.6867
rfemur -4.89947 10.0633 26.5342
rtibia 24.1271
rfoot -24.272 -29.0895
rtoes -2.31417
lfemur -5.69465 -3.3715 -17.2714
ltibia 58.8774
lfoot -13.0985 10.1852
ltoes -17.6733
309
root 2.72229 15.4363 -0.376325 -508.558 -93.8161 502.62
lowerback 5.7665 0.388446 1.18217
upperback 5.52597 0.393584 0.540279
thorax 2.46742 0.15772 -0.122957
lowerneck -13.7909 2.9566 5.11575
upperneck 24.1562 2.45732 0.22517
head 10.0397 1.48942 -0.496458
rclavicle -1.01504e-014 2.98177e-016
rhumerus -33.8876 2.36112 -86.2604
rradius 29.8217
rwrist -16.8844
rhand -17.6385 -1.76219
rfingers 7.12502
rthumb 8.61925 -31.5662
lclavicle -1.01504e-014 2.98177e-016
lhumerus -26.8061 -3.78402 88.6499
lradius 27.5071
lwrist -2.8425
lhand -19.1257 13.3239
lfingers 7.12502
lthumb 7.18382 43.1819
rfemur -5.58704 10.3317 26.2606
rtibia 24.1178
rfoot -24.016 -29.2113
rtoes -0.927878
lfemur -3.45387 -3.47057 -17.0586
ltibia 58.0925
lfoot -12.2643 8.3075
ltoes -19.1434
310
root 2.89218 15.4363 -0.335583 -516.927 -93.599 511.05
lowerback 5.39452 0.36397 0.397334
upperback 5.44859 0.343298 0.330817
thorax 2.58796 0.11481 0.104473
lowerneck -13.7983 2.91619 5.07219
upperneck 24.2252 2.36731 0.372184
head 10.0616 1.45988 -0.449017
rclavicle -1.963e-015 1.78906e-015
rhumerus -34.241 1.421 -85.9094
rradius 29.2206
rwrist -16.4345
rhand -17.6989 -1.76435
rfingers 7.12502
rthumb 8.56089 -31.5708
lclavicle -1.963e-015 1.78906e-015
lhumerus -26.554 -5.53331 89.2858
lradius 27.7903
lwrist -2.77015
lhand -19.0788 13.6047
lfingers 7.12502
lthumb 7.2291 43.4613
rfemur -6.48939 10.4883 25.2222
rtibia 24.3238
rfoot -23.6114 -29.265
rtoes -0.961504
lfemur -1.21659 -3.80088 -17.6878
ltibia 56.6654
lfoot -11.1362 6.63194
ltoes -20.1452
311
root 3.06531 15.4323 -0.288825 -524.286 -93.4885 518.58
lowerback 4.87452 0.292459 -0.307052
upperback 5.40086 0.237371 0.179141
thorax 2.82516 0.044352 0.347768
lowerneck -13.7625 2.92763 4.93199
upperneck 24.1191 2.37468 0.562359
head 10.0121 1.47158 -0.358659
rclavicle 4.67144e-015 4.96962e-015
rhumerus -34.5348 0.711312 -85.5921
rradius 28.8626
rwrist -16.2047
rhand -17.6579 -1.86379
rfingers 7.12502
rthumb 8.60053 -31.6686
lclavicle 4.67144e-015 4.96962e-015
lhumerus -26.2278 -7.37915 90.0266
lradius 28.2537
lwrist -2.37115
lhand -18.964 14.7203
lfingers 7.12502
lthumb 7.33993 44.573
rfemur -7.62116 10.5435 24.2368
rtibia 24.7038
rfoot -23.1819 -29.2397
rtoes -1.30967
lfemur 0.95254 -4.24885 -18.3092
ltibia 54.6626
lfoot -10.2527 5.41981
ltoes -21.1505
